<svg width="282" height="42" xmlns="http://www.w3.org/2000/svg" overflow="hidden"><defs><clipPath id="a"><path d="M951 51h282v42H951z"/></clipPath></defs><g clip-path="url(#a)" transform="translate(-951 -51)"><path d="M1102.454 73.72c.564 0 1.022.455 1.024 1.017v4.478a1.024 1.024 0 0 1-1.024 1.02h-1.513a1.026 1.026 0 0 1-1.02-1.02v-4.478a1.022 1.022 0 0 1 1.02-1.017zM1108.232 69.58c.49.001.889.398.89.888v4.14a.893.893 0 0 1-.89.885h-1.186a.89.89 0 0 1-.888-.884v-4.141a.89.89 0 0 1 .888-.888zM1102.454 64.851c.564 0 1.022.455 1.024 1.017v4.468a1.021 1.021 0 0 1-1.024 1.017h-1.513a1.022 1.022 0 0 1-1.02-1.017v-4.468a1.022 1.022 0 0 1 1.02-1.017zM1096.37 78.449a.89.89 0 0 1 .891.888v4.134c0 .49-.399.888-.892.888h-1.185a.89.89 0 0 1-.891-.888v-4.134c0-.49.4-.888.89-.888zM1096.592 68.979c.614.001 1.11.497 1.112 1.11v4.876a1.114 1.114 0 0 1-1.112 1.11h-1.63a1.114 1.114 0 0 1-1.113-1.11v-4.867a1.114 1.114 0 0 1 1.113-1.11zM1096.37 60.724c.49.002.887.397.89.885v4.137a.893.893 0 0 1-.89.888h-1.186a.894.894 0 0 1-.892-.888V61.6a.894.894 0 0 1 .892-.885zM1090.603 73.72c.564 0 1.02.456 1.02 1.017v4.478c0 .562-.456 1.018-1.02 1.02h-1.514a1.026 1.026 0 0 1-1.02-1.02v-4.478a1.022 1.022 0 0 1 1.02-1.017zM1083.319 69.58h1.186a.89.89 0 0 1 .904.875V74.605a.89.89 0 0 1-.891.888h-1.196a.89.89 0 0 1-.894-.885v-4.143c0-.49.397-.885.888-.885h.003zM1090.603 64.851c.564 0 1.02.456 1.02 1.017v4.468c0 .562-.456 1.017-1.02 1.017h-1.514a1.022 1.022 0 0 1-1.02-1.017v-4.468a1.022 1.022 0 0 1 1.02-1.017z" fill="#7AB2E0"/><path d="M1127.775 65.092c-1.683-1.116-3.796-1.267-5.84-1.267h-7.784v17.394h7.764c2.232 0 4.558-.129 6.38-1.608 1.742-1.456 2.623-3.903 2.623-7.264 0-1.919-.41-5.402-3.143-7.264m-.964 12.992c-1.272 1.146-3.005 1.245-4.677 1.245h-5.82V65.743h5.82c4.7 0 6.624 1.981 6.624 6.789 0 2.545-.639 4.365-1.944 5.553M1142.823 63.395c-5.81 0-9.878 3.754-9.878 9.137 0 5.382 4.068 9.146 9.878 9.146 5.89 0 9.844-3.675 9.844-9.146 0-5.383-4.044-9.137-9.844-9.137m0 16.556c-4.608 0-7.702-2.972-7.702-7.42 0-4.447 3.108-7.416 7.702-7.416 4.594 0 7.681 2.972 7.681 7.417 0 4.444-3.084 7.419-7.681 7.419M1173.36 63.825v17.394h-2.905l-11.597-14.149-.884-1.086v15.235h-2.173V63.825h3.064l11.442 14.01.89 1.086V63.824h2.163zM1191.35 79.33v1.889h-13.461V63.825h2.163V79.33h11.298zM1210.238 79.33v1.889h-14.412V63.825h14.173v1.918h-12.01v5.64h11.297V73.3h-11.297v6.03h12.249zM1232.742 63.825v17.394h-2.895L1218.24 67.07l-.88-1.086v15.235h-2.164V63.825h3.054l11.438 14.01.891 1.086V63.824h2.163z" fill="#0D0E0F"/><path d="M969.656 67.476a26.71 26.71 0 0 0-.662-4.903v-.026a.132.132 0 0 0-.13-.08l-.072.017-1.054.33h-.03a.139.139 0 0 0-.102.132v.023c.287 1.288.485 2.595.593 3.91.633 7.422-1.544 13.66-4.853 13.94-3.309.281-6.509-5.507-7.138-12.93a29.593 29.593 0 0 1-.083-3.691c0-.073 0-.169-.136-.156h-.05l-4.577 1.78a.135.135 0 0 0-.09.119c-.033.74-.033 1.49 0 2.249.332 8.76 4.737 15.703 9.812 15.519 5.074-.185 8.91-7.46 8.566-16.223" fill="#3D3935"/><path d="M980.508 65.403a29.602 29.602 0 0 0-.835-5.897v-.023a.14.14 0 0 0-.132-.11h-.04l-1.633.519a.139.139 0 0 0-.096.129v.066c.38 1.58.638 3.187.772 4.807.702 8.172-1.633 15.044-5.204 15.35-3.571.308-7.026-6.068-7.741-14.237a33.232 33.232 0 0 1 0-5.613.136.136 0 0 0-.133-.139h-.056l-6.294 2.55a.145.145 0 0 0-.086.125 30.386 30.386 0 0 0-.043 3.394c.42 10.051 5.578 17.992 11.52 17.741 5.943-.25 10.412-8.585 9.99-18.64" fill="#71984A"/><path d="M986.725 66.265h2.73l2.895 9.542h.053l3.057-9.542h2.57l3.244 9.542h.056l2.76-9.542h2.57l-4.141 12.778h-2.461l-3.379-9.546h-.056l-3.057 9.546h-2.62l-4.22-12.778zM1007.444 58.66h2.432v9.576h.053c.622-1.35 2.246-2.292 4.216-2.292 2.491 0 4.654 1.483 4.654 4.88v8.222h-2.43v-7.551c0-2.4-1.382-3.302-2.922-3.302-2.031 0-3.571 1.29-3.571 4.26v6.577h-2.432zM1022.84 73.542c0 2.239 2.084 3.721 4.327 3.721 1.49 0 2.573-.753 3.517-1.912l1.842 1.4c-1.354 1.754-3.223 2.615-5.684 2.615-4.055 0-6.598-2.909-6.598-6.712 0-3.804 2.789-6.713 6.624-6.713 4.515 0 6.248 3.45 6.248 6.742v.859zm7.682-1.922c-.052-2.133-1.245-3.721-3.703-3.721-2.458 0-3.975 2.02-3.975 3.721zM1037.024 73.542c0 2.239 2.084 3.721 4.33 3.721 1.484 0 2.567-.753 3.514-1.912l1.838 1.4c-1.351 1.754-3.22 2.615-5.68 2.615-4.055 0-6.599-2.909-6.599-6.712 0-3.804 2.786-6.713 6.625-6.713 4.516 0 6.247 3.45 6.247 6.742v.859zm7.682-1.922c-.053-2.133-1.245-3.721-3.707-3.721-2.408 0-3.975 2.02-3.975 3.721zM1061.897 69.47a3.27 3.27 0 0 0-2.623-1.264c-1.14 0-2.14.512-2.14 1.427 0 1.538 2.193 1.753 3.276 1.997 2.11.512 3.73 1.32 3.73 3.721 0 2.883-2.65 4.015-5.194 4.015-2.11 0-3.677-.538-4.949-2.265l1.838-1.509c.789.783 1.707 1.51 3.111 1.51 1.245 0 2.597-.512 2.597-1.618 0-1.457-2.027-1.724-3.084-1.965-2.083-.515-3.919-1.189-3.919-3.632 0-2.668 2.458-3.936 4.87-3.936 1.702 0 3.458.59 4.382 2.103zM1051.443 58.829v15.908c0 1.572.779 2.104 1.55 2.104h.332v2.235h-.6c-2.219 0-3.686-1.252-3.686-4.154V58.83z" fill="#3D3935"/><path d="M122.962.33v41.34" stroke="#231F20" stroke-width=".66" stroke-linecap="round" stroke-miterlimit="10" fill="none" transform="matrix(1.00319 0 0 1 951.256 51)"/></g></svg>